<?xml version="1.0" encoding="UTF-8" standalone="no"?>
<!-- Created with Inkscape (http://www.inkscape.org/) -->

<svg
   width="128"
   height="128"
   viewBox="0 0 128 128"
   version="1.1"
   id="svg5"
   xmlns="http://www.w3.org/2000/svg"
   xmlns:svg="http://www.w3.org/2000/svg">
  <defs
     id="defs2" />
  <g
     id="layer2"
     transform="translate(-55.882568,-58.333977)">
    <path
       style="fill:none;fill-rule:evenodd;stroke:#245dc1;stroke-width:8.07353;stroke-dasharray:none;stroke-dashoffset:0;stroke-opacity:1"
       id="path2731"
       d="m 79.47477,74.462852 c 3.359145,3.276159 -2.758913,6.144402 -5.445191,5.583121 C 66.749931,78.524935 65.466627,69.24103 68.308529,63.572471 73.392026,53.43275 86.905204,52.083324 95.810342,57.713492 108.87899,65.975989 110.31084,84.207031 101.80725,96.243615 90.473305,112.28649 67.379601,113.79165 52.248816,102.37845 33.208267,88.016109 31.63454,59.998961 45.976048,41.791708 63.345536,19.740287 96.31737,18.100367 117.5911,35.381011 c 25.07036,20.36464 26.77521,58.309374 6.54863,82.643369 -23.35238,28.09456 -66.28158,29.86359 -93.671676,6.68655 C -0.65431467,98.375709 -2.4871085,50.454228 23.643567,20.010946 52.958236,-14.141816 105.87753,-16.038084 139.37187,13.04853 c 37.18506,32.291654 39.14462,90.21282 7.10034,126.75661"
       transform="matrix(0.6412478,0,0,0.66993377,57.402053,78.84364)" />
    <path
       style="fill:none;fill-rule:evenodd;stroke:#245dc1;stroke-width:6.03206;stroke-dasharray:12.0641, 6.03206;stroke-dashoffset:0;stroke-opacity:1"
       id="path2731-0"
       d="m 79.47477,74.462852 c 3.359145,3.276159 -2.758913,6.144402 -5.445191,5.583121 C 66.749931,78.524935 65.466627,69.24103 68.308529,63.572471 73.392026,53.43275 86.905204,52.083324 95.810342,57.713492 108.87899,65.975989 110.31084,84.207031 101.80725,96.243615 90.473305,112.28649 67.379601,113.79165 52.248816,102.37845 33.208267,88.016109 31.63454,59.998961 45.976048,41.791708 63.345536,19.740287 96.31737,18.100367 117.5911,35.381011 c 25.07036,20.36464 26.77521,58.309374 6.54863,82.643369 -23.35238,28.09456 -66.28158,29.86359 -93.671676,6.68655 C -0.65431467,98.375709 -2.4871085,50.454228 23.643567,20.010946 52.958236,-14.141816 105.87753,-16.038084 139.37187,13.04853 c 37.18506,32.291654 39.14462,90.21282 7.10034,126.75661"
       transform="matrix(0.68674593,0,0,0.71719527,54.201817,75.071364)" />
  </g>
  <g
     id="layer1"
     transform="translate(-55.882568,-58.333977)">
    <text
       xml:space="preserve"
       style="font-style:normal;font-variant:normal;font-weight:normal;font-stretch:normal;font-size:159.899px;font-family:System-ui;-inkscape-font-specification:System-ui;fill:#82c7ff;fill-opacity:1;stroke-width:0.399751"
       x="76.900414"
       y="162.18341"
       id="text220"
       transform="matrix(1.0078014,0.10406206,-0.11383459,0.98050479,0,0)"><tspan
         id="tspan218"
         style="font-style:normal;font-variant:normal;font-weight:normal;font-stretch:normal;font-family:System-ui;-inkscape-font-specification:System-ui;fill:#82c7ff;fill-opacity:1;stroke-width:0.399751"
         x="76.900414"
         y="162.18341">A</tspan></text>
  </g>
</svg>
